<svg xmlns="http://www.w3.org/2000/svg" width="1920" height="1440" viewBox="0 0 1920 1440" role="img" aria-label="Abstract cloud analytics and charts">
  <defs>
    <linearGradient id="g1" x1="0" y1="0" x2="1" y2="1">
      <stop offset="0" stop-color="#E8F5F1"/>
      <stop offset="1" stop-color="#DDEBF5"/>
    </linearGradient>
  </defs>
  <rect width="1920" height="1440" fill="url(#g1)"/>
  <g transform="translate(200,240)">
    <rect x="0" y="0" width="1520" height="960" rx="32" fill="#ffffff" stroke="#e5e7eb"/>
    <rect x="48" y="72" width="1424" height="4" fill="#e5e7eb"/>
    <g transform="translate(120,180)" fill="#e2e8f0">
      <rect x="0"   y="540" width="80"  height="300" rx="8"/>
      <rect x="160" y="420" width="80"  height="420" rx="8"/>
      <rect x="320" y="360" width="80"  height="480" rx="8"/>
      <rect x="480" y="260" width="80"  height="580" rx="8"/>
      <rect x="640" y="420" width="80"  height="420" rx="8"/>
      <rect x="800" y="320" width="80"  height="520" rx="8"/>
      <rect x="960" y="220" width="80"  height="620" rx="8"/>
    </g>
    <g transform="translate(1080,80)">
      <ellipse cx="180" cy="80" rx="140" ry="80" fill="#f0f9ff"/>
      <ellipse cx="280" cy="120" rx="110" ry="60" fill="#ecfeff"/>
      <ellipse cx="120" cy="130" rx="80"  ry="44" fill="#eef2ff"/>
    </g>
    <polyline points="160,720 320,640 480,740 640,540 800,620 960,520 1120,660 1280,480"
              fill="none" stroke="#10b981" stroke-width="10" stroke-linecap="round"/>
  </g>
</svg>
